<?xml version="1.0" encoding="utf-8"?>
<!-- Generator: Adobe Illustrator 21.0.2, SVG Export Plug-In . SVG Version: 6.00 Build 0)  -->
<svg version="1.1" id="Layer_1" xmlns="http://www.w3.org/2000/svg" xmlns:xlink="http://www.w3.org/1999/xlink" x="0px" y="0px"
	 viewBox="0 0 255.4 223.7" style="enable-background:new 0 0 255.4 223.7;" xml:space="preserve">
<style type="text/css">
	.st0{fill:#5B6F8A;}
</style>
<path class="st0" d="M31.2,14.1H26v50.7H14.4V51.3H9.1v14c0,1.1,0.4,2.1,1.2,2.8c0.8,0.7,1.8,1.1,3,1.1H27c1.2,0,2.2-0.4,3-1.1
	c0.8-0.7,1.2-1.7,1.2-2.8V14.1z"/>
<path class="st0" d="M46.1,14.1h-5.2v55h5.2V14.1z"/>
<path class="st0" d="M80.4,14.1h-5.2v50.7h-14V14.1h-5.2v51.1c0,1.1,0.4,2.1,1.2,2.8c0.8,0.7,1.8,1.1,3,1.1h16c1.2,0,2.2-0.4,3-1.1
	c0.8-0.7,1.2-1.7,1.2-2.8V14.1z"/>
<path class="st0" d="M104.2,46H88.7v4.4h15.5V46z"/>
<path class="st0" d="M133.2,14.1H128v50.7h-11.6V51.3h-5.2v14c0,1.1,0.4,2.1,1.2,2.8c0.8,0.7,1.8,1.1,3,1.1H129c1.2,0,2.2-0.4,3-1.1
	c0.8-0.7,1.2-1.7,1.2-2.8V14.1z"/>
<path class="st0" d="M148.1,14.1h-5.2v55h5.2V14.1z"/>
<path class="st0" d="M178.2,14.1h-23.5v4.3h9.2v50.7h5.2V18.4h9.1V14.1z"/>
<path class="st0" d="M207.3,52.5c0-1.5-0.5-2.9-1.6-4.1L189.4,30V18.4h12.7v12.4h5.2V18c0-1.1-0.4-2.1-1.1-2.8
	c-0.8-0.7-1.8-1.1-3-1.1h-14.8c-1.2,0-2.2,0.4-3,1.1c-0.8,0.7-1.2,1.7-1.2,2.8v11.1c0,1.5,0.6,2.9,1.7,4.2l16.3,18.4v13.1h-12.7
	V51.3h-5.2v14c0,1.1,0.4,2.1,1.2,2.8c0.8,0.7,1.8,1.1,3,1.1h14.8c1.2,0,2.2-0.4,3-1.1c0.8-0.7,1.1-1.7,1.1-2.8V52.5z"/>
<path class="st0" d="M241,14.1h-5.2v50.7h-14V14.1h-5.2v51.1c0,1.1,0.4,2.1,1.2,2.8c0.8,0.7,1.8,1.1,3,1.1h16c1.2,0,2.2-0.4,3-1.1
	c0.8-0.7,1.2-1.7,1.2-2.8V14.1z"/>
<path class="st0" d="M26,81.2h-5.2l-10.7,55v0.1h5.1l2.1-12.2h11.9l2.1,12.2h5.3L26,81.2z M18,119.8l5.3-29.8l5.2,29.8H18z"/>
<path class="st0" d="M54,107.8l13.6-26.2v-0.3h-5.8L49.2,106V81.3h-5.3v55h5.3v-26.4L63,136.3h5.9L54,107.8z"/>
<path class="st0" d="M87.6,81.2h-5.2l-10.7,55v0.1h5.1l2.1-12.2h11.9l2.1,12.2h5.3L87.6,81.2z M79.6,119.8l5.3-29.8l5.2,29.8H79.6z"
	/>
<path class="st0" d="M130.2,91.2c0-2.9-1-5.3-3.1-7.2c-2.1-1.9-4.7-2.8-7.9-2.8h-13.7v55h13.7c3.2,0,5.8-0.9,7.9-2.8
	c2.1-1.9,3.1-4.2,3.1-7.2V91.2z M122.9,130.4c-1.3,1.1-3,1.6-5,1.6h-7.1V85.6h7.4c2,0,3.6,0.6,4.8,1.7c1.2,1.1,1.9,2.6,1.9,4.4v34.2
	C124.8,127.8,124.2,129.3,122.9,130.4z"/>
<path class="st0" d="M159.2,132h-14.4v-21.4h12.9v-4.4h-12.9V85.6H159v-4.3h-19.5v55h19.7V132z"/>
<path class="st0" d="M197.2,81.3h-4.9l-9.7,35.8c-0.1,0.7-0.2,1.2-0.2,1.6c-0.1-0.9-0.1-1.4-0.2-1.6l-9.7-35.8h-4.9v55h5v-34.8
	c0-0.5-0.2-1.9-0.5-4.3l9.8,34h1.1l9.8-34c-0.4,2.4-0.5,3.8-0.5,4.3v34.8h5V81.3z"/>
<path class="st0" d="M212.4,81.3h-5.3v55h5.3V81.3z"/>
<path class="st0" d="M242.1,132h-14.4v-21.4h12.9v-4.4h-12.9V85.6h14.1v-4.3h-19.5v55h19.7V132z"/>
<path class="st0" d="M36.3,149.5h-5.6v24.2H15.5v-24.2H9.9v55h5.6V178h15.2v26.4h5.6V149.5z"/>
<path class="st0" d="M72.7,149.5h-5.6v50.7h-15v-50.7h-5.6v51.1c0,1.1,0.4,2.1,1.3,2.8c0.8,0.7,1.9,1.1,3.2,1.1h17.2
	c1.3,0,2.4-0.4,3.3-1.1c0.8-0.7,1.3-1.7,1.3-2.8V149.5z"/>
<path class="st0" d="M114.1,149.5h-5.2l-10.3,35.8c-0.1,0.7-0.2,1.2-0.2,1.6c-0.1-0.9-0.1-1.4-0.2-1.6L88,149.5h-5.2v55h5.3v-34.8
	c0-0.5-0.2-1.9-0.6-4.3l10.4,34H99l10.3-34c-0.4,2.4-0.6,3.8-0.6,4.3v34.8h5.3V149.5z"/>
<path class="st0" d="M149.5,181.9c0-1.6-0.7-2.8-2.1-3.5l-4.8-2.7c1.5-0.8,3-1.5,4.4-2.3c1.5-1,2.3-2.2,2.3-3.7v-16.3
	c0-1.1-0.4-2.1-1.3-2.8c-0.8-0.7-1.9-1.1-3.2-1.1h-20.7v55h20.9c1.3,0,2.4-0.4,3.2-1.1c0.8-0.7,1.3-1.7,1.3-2.8V181.9z M138.1,173.6
	h-8.3v-19.9h13.9v16.6L138.1,173.6z M129.8,200.2v-22.3h8.4l5.7,3.2v19H129.8z"/>
<path class="st0" d="M180.1,200.2H165v-21.4h13.6v-4.4H165v-20.5h14.9v-4.3h-20.5v55h20.8V200.2z"/>
<path class="st0" d="M209.7,200.2h-15.2v-21.4h13.6v-4.4h-13.6v-20.5h14.9v-4.3h-20.5v55h20.8V200.2z"/>
<path class="st0" d="M229.1,176l14.3-26.2v-0.3h-6.1l-13.3,24.7v-24.7h-5.6v55h5.6V178l14.6,26.4h6.2L229.1,176z"/>
</svg>
